<mxfile host="app.diagrams.net" agent="Mozilla/5.0 (Windows NT 10.0; Win64; x64) AppleWebKit/537.36 (KHTML, like Gecko) Chrome/131.0.0.0 Safari/537.36" version="25.0.1">
  <diagram name="PÃ¡gina-1" id="IokENeqfcZ8Z3EMQ2jjL">
    <mxGraphModel dx="2687" dy="867" grid="1" gridSize="10" guides="1" tooltips="1" connect="1" arrows="1" fold="1" page="1" pageScale="1" pageWidth="827" pageHeight="1169" math="0" shadow="0">
      <root>
        <mxCell id="0" />
        <mxCell id="1" parent="0" />
        <mxCell id="1_fNYgQ6_xFXtblxYXV3-25" value="&lt;span style=&quot;font-weight: normal;&quot;&gt;Produto&lt;/span&gt;" style="swimlane;fontStyle=1;align=center;verticalAlign=top;childLayout=stackLayout;horizontal=1;startSize=26;horizontalStack=0;resizeParent=1;resizeParentMax=0;resizeLast=0;collapsible=1;marginBottom=0;whiteSpace=wrap;html=1;" parent="1" vertex="1">
          <mxGeometry x="230" y="30" width="360" height="172" as="geometry" />
        </mxCell>
        <mxCell id="1_fNYgQ6_xFXtblxYXV3-26" value="- id: Integer" style="text;strokeColor=none;fillColor=none;align=left;verticalAlign=top;spacingLeft=4;spacingRight=4;overflow=hidden;rotatable=0;points=[[0,0.5],[1,0.5]];portConstraint=eastwest;whiteSpace=wrap;html=1;" parent="1_fNYgQ6_xFXtblxYXV3-25" vertex="1">
          <mxGeometry y="26" width="360" height="26" as="geometry" />
        </mxCell>
        <mxCell id="1_fNYgQ6_xFXtblxYXV3-29" value="- nome: String" style="text;strokeColor=none;fillColor=none;align=left;verticalAlign=top;spacingLeft=4;spacingRight=4;overflow=hidden;rotatable=0;points=[[0,0.5],[1,0.5]];portConstraint=eastwest;whiteSpace=wrap;html=1;" parent="1_fNYgQ6_xFXtblxYXV3-25" vertex="1">
          <mxGeometry y="52" width="360" height="26" as="geometry" />
        </mxCell>
        <mxCell id="1_fNYgQ6_xFXtblxYXV3-30" value="- preco: Real" style="text;strokeColor=none;fillColor=none;align=left;verticalAlign=top;spacingLeft=4;spacingRight=4;overflow=hidden;rotatable=0;points=[[0,0.5],[1,0.5]];portConstraint=eastwest;whiteSpace=wrap;html=1;" parent="1_fNYgQ6_xFXtblxYXV3-25" vertex="1">
          <mxGeometry y="78" width="360" height="26" as="geometry" />
        </mxCell>
        <mxCell id="1_fNYgQ6_xFXtblxYXV3-32" value="- qtd: Integer" style="text;strokeColor=none;fillColor=none;align=left;verticalAlign=top;spacingLeft=4;spacingRight=4;overflow=hidden;rotatable=0;points=[[0,0.5],[1,0.5]];portConstraint=eastwest;whiteSpace=wrap;html=1;" parent="1_fNYgQ6_xFXtblxYXV3-25" vertex="1">
          <mxGeometry y="104" width="360" height="26" as="geometry" />
        </mxCell>
        <mxCell id="1_fNYgQ6_xFXtblxYXV3-27" value="" style="line;strokeWidth=1;fillColor=none;align=left;verticalAlign=middle;spacingTop=-1;spacingLeft=3;spacingRight=3;rotatable=0;labelPosition=right;points=[];portConstraint=eastwest;strokeColor=inherit;" parent="1_fNYgQ6_xFXtblxYXV3-25" vertex="1">
          <mxGeometry y="130" width="360" height="16" as="geometry" />
        </mxCell>
        <mxCell id="_YEIu9zwAJ8JmFqL8ytD-3" value="+ &lt;u&gt;verificarDados(nome: String, preco: Real, quantidade: Integer)&lt;/u&gt;" style="text;strokeColor=none;fillColor=none;align=left;verticalAlign=top;spacingLeft=4;spacingRight=4;overflow=hidden;rotatable=0;points=[[0,0.5],[1,0.5]];portConstraint=eastwest;whiteSpace=wrap;html=1;" vertex="1" parent="1_fNYgQ6_xFXtblxYXV3-25">
          <mxGeometry y="146" width="360" height="26" as="geometry" />
        </mxCell>
        <mxCell id="1_fNYgQ6_xFXtblxYXV3-39" value="BancoDeDados" style="swimlane;fontStyle=0;childLayout=stackLayout;horizontal=1;startSize=26;fillColor=none;horizontalStack=0;resizeParent=1;resizeParentMax=0;resizeLast=0;collapsible=1;marginBottom=0;whiteSpace=wrap;html=1;" parent="1" vertex="1">
          <mxGeometry x="1060" y="420" width="440" height="234" as="geometry" />
        </mxCell>
        <mxCell id="1_fNYgQ6_xFXtblxYXV3-40" value="+ &lt;u&gt;adicionarCliente(nome: String, cpf: String, telefone: String)&lt;/u&gt;" style="text;strokeColor=none;fillColor=none;align=left;verticalAlign=top;spacingLeft=4;spacingRight=4;overflow=hidden;rotatable=0;points=[[0,0.5],[1,0.5]];portConstraint=eastwest;whiteSpace=wrap;html=1;" parent="1_fNYgQ6_xFXtblxYXV3-39" vertex="1">
          <mxGeometry y="26" width="440" height="26" as="geometry" />
        </mxCell>
        <mxCell id="1_fNYgQ6_xFXtblxYXV3-44" value="+ &lt;u&gt;adicionarPedido(nome_cliente: String, lista_produtos: Produto[0..*], total: Real)&lt;/u&gt;" style="text;strokeColor=none;fillColor=none;align=left;verticalAlign=top;spacingLeft=4;spacingRight=4;overflow=hidden;rotatable=0;points=[[0,0.5],[1,0.5]];portConstraint=eastwest;whiteSpace=wrap;html=1;" parent="1_fNYgQ6_xFXtblxYXV3-39" vertex="1">
          <mxGeometry y="52" width="440" height="26" as="geometry" />
        </mxCell>
        <mxCell id="1_fNYgQ6_xFXtblxYXV3-41" value="+ &lt;u&gt;adicionarProduto(id: Integer, nome: String, preco: Real, qtd: Integer)&lt;/u&gt;" style="text;strokeColor=none;fillColor=none;align=left;verticalAlign=top;spacingLeft=4;spacingRight=4;overflow=hidden;rotatable=0;points=[[0,0.5],[1,0.5]];portConstraint=eastwest;whiteSpace=wrap;html=1;" parent="1_fNYgQ6_xFXtblxYXV3-39" vertex="1">
          <mxGeometry y="78" width="440" height="26" as="geometry" />
        </mxCell>
        <mxCell id="1_fNYgQ6_xFXtblxYXV3-42" value="+ &lt;u&gt;removerProduto(id_produto: Integer)&lt;/u&gt;" style="text;strokeColor=none;fillColor=none;align=left;verticalAlign=top;spacingLeft=4;spacingRight=4;overflow=hidden;rotatable=0;points=[[0,0.5],[1,0.5]];portConstraint=eastwest;whiteSpace=wrap;html=1;" parent="1_fNYgQ6_xFXtblxYXV3-39" vertex="1">
          <mxGeometry y="104" width="440" height="26" as="geometry" />
        </mxCell>
        <mxCell id="1_fNYgQ6_xFXtblxYXV3-43" value="+ &lt;u&gt;editarProduto(id_produto: Integer, dado_produto: String)&lt;/u&gt;" style="text;strokeColor=none;fillColor=none;align=left;verticalAlign=top;spacingLeft=4;spacingRight=4;overflow=hidden;rotatable=0;points=[[0,0.5],[1,0.5]];portConstraint=eastwest;whiteSpace=wrap;html=1;" parent="1_fNYgQ6_xFXtblxYXV3-39" vertex="1">
          <mxGeometry y="130" width="440" height="26" as="geometry" />
        </mxCell>
        <mxCell id="u8NcvJqqO0mWb3Y4gfqW-24" value="+ &lt;u&gt;buscarProduto(id_produto: Integer): Produto&lt;/u&gt;" style="text;strokeColor=none;fillColor=none;align=left;verticalAlign=top;spacingLeft=4;spacingRight=4;overflow=hidden;rotatable=0;points=[[0,0.5],[1,0.5]];portConstraint=eastwest;whiteSpace=wrap;html=1;" parent="1_fNYgQ6_xFXtblxYXV3-39" vertex="1">
          <mxGeometry y="156" width="440" height="26" as="geometry" />
        </mxCell>
        <mxCell id="u8NcvJqqO0mWb3Y4gfqW-25" value="+ &lt;u&gt;buscarCliente(cpf: String): Cliente&lt;/u&gt;" style="text;strokeColor=none;fillColor=none;align=left;verticalAlign=top;spacingLeft=4;spacingRight=4;overflow=hidden;rotatable=0;points=[[0,0.5],[1,0.5]];portConstraint=eastwest;whiteSpace=wrap;html=1;" parent="1_fNYgQ6_xFXtblxYXV3-39" vertex="1">
          <mxGeometry y="182" width="440" height="26" as="geometry" />
        </mxCell>
        <mxCell id="u8NcvJqqO0mWb3Y4gfqW-26" value="+ &lt;u&gt;buscarPedidosCliente(cpf_cliente: String): Pedido[0..*]&lt;/u&gt;" style="text;strokeColor=none;fillColor=none;align=left;verticalAlign=top;spacingLeft=4;spacingRight=4;overflow=hidden;rotatable=0;points=[[0,0.5],[1,0.5]];portConstraint=eastwest;whiteSpace=wrap;html=1;" parent="1_fNYgQ6_xFXtblxYXV3-39" vertex="1">
          <mxGeometry y="208" width="440" height="26" as="geometry" />
        </mxCell>
        <mxCell id="1_fNYgQ6_xFXtblxYXV3-53" value="&lt;span style=&quot;font-weight: normal;&quot;&gt;GerenciadorVendas&lt;/span&gt;" style="swimlane;fontStyle=1;align=center;verticalAlign=top;childLayout=stackLayout;horizontal=1;startSize=26;horizontalStack=0;resizeParent=1;resizeParentMax=0;resizeLast=0;collapsible=1;marginBottom=0;whiteSpace=wrap;html=1;" parent="1" vertex="1">
          <mxGeometry x="50" y="416" width="210" height="264" as="geometry" />
        </mxCell>
        <mxCell id="1_fNYgQ6_xFXtblxYXV3-55" value="" style="line;strokeWidth=1;fillColor=none;align=left;verticalAlign=middle;spacingTop=-1;spacingLeft=3;spacingRight=3;rotatable=0;labelPosition=right;points=[];portConstraint=eastwest;strokeColor=inherit;" parent="1_fNYgQ6_xFXtblxYXV3-53" vertex="1">
          <mxGeometry y="26" width="210" height="4" as="geometry" />
        </mxCell>
        <mxCell id="1_fNYgQ6_xFXtblxYXV3-56" value="+ abrirCaixa()" style="text;strokeColor=none;fillColor=none;align=left;verticalAlign=top;spacingLeft=4;spacingRight=4;overflow=hidden;rotatable=0;points=[[0,0.5],[1,0.5]];portConstraint=eastwest;whiteSpace=wrap;html=1;" parent="1_fNYgQ6_xFXtblxYXV3-53" vertex="1">
          <mxGeometry y="30" width="210" height="26" as="geometry" />
        </mxCell>
        <mxCell id="1_fNYgQ6_xFXtblxYXV3-58" value="+ cadastrarProduto()" style="text;strokeColor=none;fillColor=none;align=left;verticalAlign=top;spacingLeft=4;spacingRight=4;overflow=hidden;rotatable=0;points=[[0,0.5],[1,0.5]];portConstraint=eastwest;whiteSpace=wrap;html=1;" parent="1_fNYgQ6_xFXtblxYXV3-53" vertex="1">
          <mxGeometry y="56" width="210" height="26" as="geometry" />
        </mxCell>
        <mxCell id="_YEIu9zwAJ8JmFqL8ytD-23" value="+ editarDadoProduto()" style="text;strokeColor=none;fillColor=none;align=left;verticalAlign=top;spacingLeft=4;spacingRight=4;overflow=hidden;rotatable=0;points=[[0,0.5],[1,0.5]];portConstraint=eastwest;whiteSpace=wrap;html=1;" vertex="1" parent="1_fNYgQ6_xFXtblxYXV3-53">
          <mxGeometry y="82" width="210" height="26" as="geometry" />
        </mxCell>
        <mxCell id="_YEIu9zwAJ8JmFqL8ytD-24" value="+ removerProduto()" style="text;strokeColor=none;fillColor=none;align=left;verticalAlign=top;spacingLeft=4;spacingRight=4;overflow=hidden;rotatable=0;points=[[0,0.5],[1,0.5]];portConstraint=eastwest;whiteSpace=wrap;html=1;" vertex="1" parent="1_fNYgQ6_xFXtblxYXV3-53">
          <mxGeometry y="108" width="210" height="26" as="geometry" />
        </mxCell>
        <mxCell id="1_fNYgQ6_xFXtblxYXV3-60" value="+ cadastrarCliente()" style="text;strokeColor=none;fillColor=none;align=left;verticalAlign=top;spacingLeft=4;spacingRight=4;overflow=hidden;rotatable=0;points=[[0,0.5],[1,0.5]];portConstraint=eastwest;whiteSpace=wrap;html=1;" parent="1_fNYgQ6_xFXtblxYXV3-53" vertex="1">
          <mxGeometry y="134" width="210" height="26" as="geometry" />
        </mxCell>
        <mxCell id="1_fNYgQ6_xFXtblxYXV3-72" value="+ fazerCompra(pedidos: Pedido[0..*])" style="text;strokeColor=none;fillColor=none;align=left;verticalAlign=top;spacingLeft=4;spacingRight=4;overflow=hidden;rotatable=0;points=[[0,0.5],[1,0.5]];portConstraint=eastwest;whiteSpace=wrap;html=1;" parent="1_fNYgQ6_xFXtblxYXV3-53" vertex="1">
          <mxGeometry y="160" width="210" height="26" as="geometry" />
        </mxCell>
        <mxCell id="1_fNYgQ6_xFXtblxYXV3-45" value="+ consultarProdutos()" style="text;strokeColor=none;fillColor=none;align=left;verticalAlign=top;spacingLeft=4;spacingRight=4;overflow=hidden;rotatable=0;points=[[0,0.5],[1,0.5]];portConstraint=eastwest;whiteSpace=wrap;html=1;" parent="1_fNYgQ6_xFXtblxYXV3-53" vertex="1">
          <mxGeometry y="186" width="210" height="26" as="geometry" />
        </mxCell>
        <mxCell id="1_fNYgQ6_xFXtblxYXV3-73" value="+ consultarPedidos()" style="text;strokeColor=none;fillColor=none;align=left;verticalAlign=top;spacingLeft=4;spacingRight=4;overflow=hidden;rotatable=0;points=[[0,0.5],[1,0.5]];portConstraint=eastwest;whiteSpace=wrap;html=1;" parent="1_fNYgQ6_xFXtblxYXV3-53" vertex="1">
          <mxGeometry y="212" width="210" height="26" as="geometry" />
        </mxCell>
        <mxCell id="_YEIu9zwAJ8JmFqL8ytD-5" value="- login(codigo: Integer, senha: String)" style="text;strokeColor=none;fillColor=none;align=left;verticalAlign=top;spacingLeft=4;spacingRight=4;overflow=hidden;rotatable=0;points=[[0,0.5],[1,0.5]];portConstraint=eastwest;whiteSpace=wrap;html=1;" vertex="1" parent="1_fNYgQ6_xFXtblxYXV3-53">
          <mxGeometry y="238" width="210" height="26" as="geometry" />
        </mxCell>
        <mxCell id="1_fNYgQ6_xFXtblxYXV3-74" value="&lt;span style=&quot;font-weight: 400;&quot;&gt;Pedido&lt;/span&gt;" style="swimlane;fontStyle=1;align=center;verticalAlign=top;childLayout=stackLayout;horizontal=1;startSize=26;horizontalStack=0;resizeParent=1;resizeParentMax=0;resizeLast=0;collapsible=1;marginBottom=0;whiteSpace=wrap;html=1;" parent="1" vertex="1">
          <mxGeometry x="660" y="520" width="260" height="186" as="geometry" />
        </mxCell>
        <mxCell id="1_fNYgQ6_xFXtblxYXV3-75" value="- cpf_cliente: String" style="text;strokeColor=none;fillColor=none;align=left;verticalAlign=top;spacingLeft=4;spacingRight=4;overflow=hidden;rotatable=0;points=[[0,0.5],[1,0.5]];portConstraint=eastwest;whiteSpace=wrap;html=1;" parent="1_fNYgQ6_xFXtblxYXV3-74" vertex="1">
          <mxGeometry y="26" width="260" height="26" as="geometry" />
        </mxCell>
        <mxCell id="1_fNYgQ6_xFXtblxYXV3-82" value="- lista_produtos: Produto[0..*]" style="text;strokeColor=none;fillColor=none;align=left;verticalAlign=top;spacingLeft=4;spacingRight=4;overflow=hidden;rotatable=0;points=[[0,0.5],[1,0.5]];portConstraint=eastwest;whiteSpace=wrap;html=1;" parent="1_fNYgQ6_xFXtblxYXV3-74" vertex="1">
          <mxGeometry y="52" width="260" height="26" as="geometry" />
        </mxCell>
        <mxCell id="1_fNYgQ6_xFXtblxYXV3-85" value="- total: Real" style="text;strokeColor=none;fillColor=none;align=left;verticalAlign=top;spacingLeft=4;spacingRight=4;overflow=hidden;rotatable=0;points=[[0,0.5],[1,0.5]];portConstraint=eastwest;whiteSpace=wrap;html=1;" parent="1_fNYgQ6_xFXtblxYXV3-74" vertex="1">
          <mxGeometry y="78" width="260" height="26" as="geometry" />
        </mxCell>
        <mxCell id="1_fNYgQ6_xFXtblxYXV3-76" value="" style="line;strokeWidth=1;fillColor=none;align=left;verticalAlign=middle;spacingTop=-1;spacingLeft=3;spacingRight=3;rotatable=0;labelPosition=right;points=[];portConstraint=eastwest;strokeColor=inherit;" parent="1_fNYgQ6_xFXtblxYXV3-74" vertex="1">
          <mxGeometry y="104" width="260" height="4" as="geometry" />
        </mxCell>
        <mxCell id="1_fNYgQ6_xFXtblxYXV3-79" value="+ adicionarAoPedido(produto: Produto)" style="text;strokeColor=none;fillColor=none;align=left;verticalAlign=top;spacingLeft=4;spacingRight=4;overflow=hidden;rotatable=0;points=[[0,0.5],[1,0.5]];portConstraint=eastwest;whiteSpace=wrap;html=1;" parent="1_fNYgQ6_xFXtblxYXV3-74" vertex="1">
          <mxGeometry y="108" width="260" height="26" as="geometry" />
        </mxCell>
        <mxCell id="1_fNYgQ6_xFXtblxYXV3-77" value="+ obterQuantidadeProdutos(): Integer" style="text;strokeColor=none;fillColor=none;align=left;verticalAlign=top;spacingLeft=4;spacingRight=4;overflow=hidden;rotatable=0;points=[[0,0.5],[1,0.5]];portConstraint=eastwest;whiteSpace=wrap;html=1;" parent="1_fNYgQ6_xFXtblxYXV3-74" vertex="1">
          <mxGeometry y="134" width="260" height="26" as="geometry" />
        </mxCell>
        <mxCell id="1_fNYgQ6_xFXtblxYXV3-78" value="+ obterCÃ³digoProduto(indice: Integer): Integer" style="text;strokeColor=none;fillColor=none;align=left;verticalAlign=top;spacingLeft=4;spacingRight=4;overflow=hidden;rotatable=0;points=[[0,0.5],[1,0.5]];portConstraint=eastwest;whiteSpace=wrap;html=1;" parent="1_fNYgQ6_xFXtblxYXV3-74" vertex="1">
          <mxGeometry y="160" width="260" height="26" as="geometry" />
        </mxCell>
        <mxCell id="1_fNYgQ6_xFXtblxYXV3-91" value="&lt;span style=&quot;font-weight: normal;&quot;&gt;Vendedor&lt;/span&gt;" style="swimlane;fontStyle=1;align=center;verticalAlign=top;childLayout=stackLayout;horizontal=1;startSize=26;horizontalStack=0;resizeParent=1;resizeParentMax=0;resizeLast=0;collapsible=1;marginBottom=0;whiteSpace=wrap;html=1;" parent="1" vertex="1">
          <mxGeometry x="680" y="770" width="270" height="106" as="geometry" />
        </mxCell>
        <mxCell id="1_fNYgQ6_xFXtblxYXV3-92" value="-&amp;nbsp; codigo: Integer" style="text;strokeColor=none;fillColor=none;align=left;verticalAlign=top;spacingLeft=4;spacingRight=4;overflow=hidden;rotatable=0;points=[[0,0.5],[1,0.5]];portConstraint=eastwest;whiteSpace=wrap;html=1;" parent="1_fNYgQ6_xFXtblxYXV3-91" vertex="1">
          <mxGeometry y="26" width="270" height="26" as="geometry" />
        </mxCell>
        <mxCell id="1_fNYgQ6_xFXtblxYXV3-93" value="- senha: String" style="text;strokeColor=none;fillColor=none;align=left;verticalAlign=top;spacingLeft=4;spacingRight=4;overflow=hidden;rotatable=0;points=[[0,0.5],[1,0.5]];portConstraint=eastwest;whiteSpace=wrap;html=1;" parent="1_fNYgQ6_xFXtblxYXV3-91" vertex="1">
          <mxGeometry y="52" width="270" height="26" as="geometry" />
        </mxCell>
        <mxCell id="1_fNYgQ6_xFXtblxYXV3-94" value="" style="line;strokeWidth=1;fillColor=none;align=left;verticalAlign=middle;spacingTop=-1;spacingLeft=3;spacingRight=3;rotatable=0;labelPosition=right;points=[];portConstraint=eastwest;strokeColor=inherit;" parent="1_fNYgQ6_xFXtblxYXV3-91" vertex="1">
          <mxGeometry y="78" width="270" height="2" as="geometry" />
        </mxCell>
        <mxCell id="_YEIu9zwAJ8JmFqL8ytD-4" value="+ &lt;u&gt;verificarDados(codigo: Integer, senha: String)&lt;/u&gt;" style="text;strokeColor=none;fillColor=none;align=left;verticalAlign=top;spacingLeft=4;spacingRight=4;overflow=hidden;rotatable=0;points=[[0,0.5],[1,0.5]];portConstraint=eastwest;whiteSpace=wrap;html=1;" vertex="1" parent="1_fNYgQ6_xFXtblxYXV3-91">
          <mxGeometry y="80" width="270" height="26" as="geometry" />
        </mxCell>
        <mxCell id="1_fNYgQ6_xFXtblxYXV3-98" value="" style="endArrow=open;endFill=1;endSize=12;html=1;rounded=0;entryX=1;entryY=0.5;entryDx=0;entryDy=0;exitX=0;exitY=0.5;exitDx=0;exitDy=0;edgeStyle=orthogonalEdgeStyle;" parent="1" source="1_fNYgQ6_xFXtblxYXV3-41" target="1_fNYgQ6_xFXtblxYXV3-79" edge="1">
          <mxGeometry width="160" relative="1" as="geometry">
            <mxPoint x="910" y="440" as="sourcePoint" />
            <mxPoint x="760" y="730" as="targetPoint" />
            <Array as="points">
              <mxPoint x="1060" y="560" />
              <mxPoint x="990" y="560" />
              <mxPoint x="990" y="641" />
            </Array>
          </mxGeometry>
        </mxCell>
        <mxCell id="eigLV38i5SHjXjXPlfT3-5" value="&lt;span style=&quot;font-weight: normal;&quot;&gt;Interface&lt;/span&gt;" style="swimlane;fontStyle=1;align=center;verticalAlign=top;childLayout=stackLayout;horizontal=1;startSize=26;horizontalStack=0;resizeParent=1;resizeParentMax=0;resizeLast=0;collapsible=1;marginBottom=0;whiteSpace=wrap;html=1;" parent="1" vertex="1">
          <mxGeometry x="-360" y="490" width="160" height="190" as="geometry" />
        </mxCell>
        <mxCell id="eigLV38i5SHjXjXPlfT3-7" value="" style="line;strokeWidth=1;fillColor=none;align=left;verticalAlign=middle;spacingTop=-1;spacingLeft=3;spacingRight=3;rotatable=0;labelPosition=right;points=[];portConstraint=eastwest;strokeColor=inherit;" parent="eigLV38i5SHjXjXPlfT3-5" vertex="1">
          <mxGeometry y="26" width="160" height="8" as="geometry" />
        </mxCell>
        <mxCell id="eigLV38i5SHjXjXPlfT3-15" value="&lt;u&gt;+ menuAbrirCaixa()&lt;/u&gt;" style="text;strokeColor=none;fillColor=none;align=left;verticalAlign=top;spacingLeft=4;spacingRight=4;overflow=hidden;rotatable=0;points=[[0,0.5],[1,0.5]];portConstraint=eastwest;whiteSpace=wrap;html=1;" parent="eigLV38i5SHjXjXPlfT3-5" vertex="1">
          <mxGeometry y="34" width="160" height="26" as="geometry" />
        </mxCell>
        <mxCell id="eigLV38i5SHjXjXPlfT3-16" value="&lt;u&gt;+ menuCadastrarCliente()&lt;/u&gt;" style="text;strokeColor=none;fillColor=none;align=left;verticalAlign=top;spacingLeft=4;spacingRight=4;overflow=hidden;rotatable=0;points=[[0,0.5],[1,0.5]];portConstraint=eastwest;whiteSpace=wrap;html=1;" parent="eigLV38i5SHjXjXPlfT3-5" vertex="1">
          <mxGeometry y="60" width="160" height="26" as="geometry" />
        </mxCell>
        <mxCell id="eigLV38i5SHjXjXPlfT3-20" value="&lt;u&gt;+ menuFecharCaixa()&lt;/u&gt;" style="text;strokeColor=none;fillColor=none;align=left;verticalAlign=top;spacingLeft=4;spacingRight=4;overflow=hidden;rotatable=0;points=[[0,0.5],[1,0.5]];portConstraint=eastwest;whiteSpace=wrap;html=1;" parent="eigLV38i5SHjXjXPlfT3-5" vertex="1">
          <mxGeometry y="86" width="160" height="26" as="geometry" />
        </mxCell>
        <mxCell id="eigLV38i5SHjXjXPlfT3-19" value="&lt;u&gt;+ menuFazerCompra()&lt;/u&gt;" style="text;strokeColor=none;fillColor=none;align=left;verticalAlign=top;spacingLeft=4;spacingRight=4;overflow=hidden;rotatable=0;points=[[0,0.5],[1,0.5]];portConstraint=eastwest;whiteSpace=wrap;html=1;" parent="eigLV38i5SHjXjXPlfT3-5" vertex="1">
          <mxGeometry y="112" width="160" height="26" as="geometry" />
        </mxCell>
        <mxCell id="eigLV38i5SHjXjXPlfT3-18" value="&lt;u&gt;+ menuConsultarEstoque()&lt;/u&gt;" style="text;strokeColor=none;fillColor=none;align=left;verticalAlign=top;spacingLeft=4;spacingRight=4;overflow=hidden;rotatable=0;points=[[0,0.5],[1,0.5]];portConstraint=eastwest;whiteSpace=wrap;html=1;" parent="eigLV38i5SHjXjXPlfT3-5" vertex="1">
          <mxGeometry y="138" width="160" height="26" as="geometry" />
        </mxCell>
        <mxCell id="eigLV38i5SHjXjXPlfT3-17" value="&lt;u&gt;+ menuProdutos()&lt;/u&gt;" style="text;strokeColor=none;fillColor=none;align=left;verticalAlign=top;spacingLeft=4;spacingRight=4;overflow=hidden;rotatable=0;points=[[0,0.5],[1,0.5]];portConstraint=eastwest;whiteSpace=wrap;html=1;" parent="eigLV38i5SHjXjXPlfT3-5" vertex="1">
          <mxGeometry y="164" width="160" height="26" as="geometry" />
        </mxCell>
        <mxCell id="1_fNYgQ6_xFXtblxYXV3-33" value="&lt;span style=&quot;font-weight: normal;&quot;&gt;Cliente&lt;/span&gt;" style="swimlane;fontStyle=1;align=center;verticalAlign=top;childLayout=stackLayout;horizontal=1;startSize=26;horizontalStack=0;resizeParent=1;resizeParentMax=0;resizeLast=0;collapsible=1;marginBottom=0;whiteSpace=wrap;html=1;" parent="1" vertex="1">
          <mxGeometry x="630" y="240" width="330" height="132" as="geometry" />
        </mxCell>
        <mxCell id="1_fNYgQ6_xFXtblxYXV3-35" value="- nome: String" style="text;strokeColor=none;fillColor=none;align=left;verticalAlign=top;spacingLeft=4;spacingRight=4;overflow=hidden;rotatable=0;points=[[0,0.5],[1,0.5]];portConstraint=eastwest;whiteSpace=wrap;html=1;" parent="1_fNYgQ6_xFXtblxYXV3-33" vertex="1">
          <mxGeometry y="26" width="330" height="26" as="geometry" />
        </mxCell>
        <mxCell id="_YEIu9zwAJ8JmFqL8ytD-2" value="- cpf: String" style="text;strokeColor=none;fillColor=none;align=left;verticalAlign=top;spacingLeft=4;spacingRight=4;overflow=hidden;rotatable=0;points=[[0,0.5],[1,0.5]];portConstraint=eastwest;whiteSpace=wrap;html=1;" vertex="1" parent="1_fNYgQ6_xFXtblxYXV3-33">
          <mxGeometry y="52" width="330" height="26" as="geometry" />
        </mxCell>
        <mxCell id="1_fNYgQ6_xFXtblxYXV3-36" value="- telefone: String" style="text;strokeColor=none;fillColor=none;align=left;verticalAlign=top;spacingLeft=4;spacingRight=4;overflow=hidden;rotatable=0;points=[[0,0.5],[1,0.5]];portConstraint=eastwest;whiteSpace=wrap;html=1;" parent="1_fNYgQ6_xFXtblxYXV3-33" vertex="1">
          <mxGeometry y="78" width="330" height="26" as="geometry" />
        </mxCell>
        <mxCell id="1_fNYgQ6_xFXtblxYXV3-38" value="" style="line;strokeWidth=1;fillColor=none;align=left;verticalAlign=middle;spacingTop=-1;spacingLeft=3;spacingRight=3;rotatable=0;labelPosition=right;points=[];portConstraint=eastwest;strokeColor=inherit;" parent="1_fNYgQ6_xFXtblxYXV3-33" vertex="1">
          <mxGeometry y="104" width="330" height="2" as="geometry" />
        </mxCell>
        <mxCell id="_YEIu9zwAJ8JmFqL8ytD-1" value="+ &lt;u&gt;verificarDados(nome: String, cpf: String, telefone: String)&lt;/u&gt;" style="text;strokeColor=none;fillColor=none;align=left;verticalAlign=top;spacingLeft=4;spacingRight=4;overflow=hidden;rotatable=0;points=[[0,0.5],[1,0.5]];portConstraint=eastwest;whiteSpace=wrap;html=1;" vertex="1" parent="1_fNYgQ6_xFXtblxYXV3-33">
          <mxGeometry y="106" width="330" height="26" as="geometry" />
        </mxCell>
        <mxCell id="u8NcvJqqO0mWb3Y4gfqW-11" value="" style="endArrow=none;html=1;endSize=12;startArrow=diamondThin;startSize=14;startFill=0;edgeStyle=orthogonalEdgeStyle;align=left;verticalAlign=bottom;rounded=0;endFill=0;exitX=0.5;exitY=0;exitDx=0;exitDy=0;entryX=1;entryY=0.5;entryDx=0;entryDy=0;" parent="1" source="1_fNYgQ6_xFXtblxYXV3-74" target="1_fNYgQ6_xFXtblxYXV3-30" edge="1">
          <mxGeometry x="-1" y="3" relative="1" as="geometry">
            <mxPoint x="790" y="420" as="sourcePoint" />
            <mxPoint x="950" y="420" as="targetPoint" />
            <Array as="points">
              <mxPoint x="790" y="440" />
              <mxPoint x="1010" y="440" />
              <mxPoint x="1010" y="177" />
            </Array>
            <mxPoint as="offset" />
          </mxGeometry>
        </mxCell>
        <mxCell id="u8NcvJqqO0mWb3Y4gfqW-20" value="" style="endArrow=open;endFill=1;endSize=12;html=1;rounded=0;edgeStyle=orthogonalEdgeStyle;exitX=0.75;exitY=0;exitDx=0;exitDy=0;entryX=0.5;entryY=1;entryDx=0;entryDy=0;dashed=1;dashPattern=8 8;" parent="1" source="1_fNYgQ6_xFXtblxYXV3-53" target="1_fNYgQ6_xFXtblxYXV3-33" edge="1">
          <mxGeometry width="160" relative="1" as="geometry">
            <mxPoint x="590" y="282" as="sourcePoint" />
            <mxPoint x="460" y="449" as="targetPoint" />
          </mxGeometry>
        </mxCell>
        <mxCell id="u8NcvJqqO0mWb3Y4gfqW-21" value="" style="endArrow=open;endFill=1;endSize=12;html=1;rounded=0;edgeStyle=orthogonalEdgeStyle;exitX=1;exitY=0.5;exitDx=0;exitDy=0;entryX=0;entryY=0.5;entryDx=0;entryDy=0;dashed=1;dashPattern=8 8;" parent="1" source="1_fNYgQ6_xFXtblxYXV3-60" target="1_fNYgQ6_xFXtblxYXV3-85" edge="1">
          <mxGeometry width="160" relative="1" as="geometry">
            <mxPoint x="600" y="292" as="sourcePoint" />
            <mxPoint x="470" y="459" as="targetPoint" />
            <Array as="points">
              <mxPoint x="530" y="537" />
              <mxPoint x="530" y="611" />
            </Array>
          </mxGeometry>
        </mxCell>
        <mxCell id="u8NcvJqqO0mWb3Y4gfqW-22" value="&lt;font style=&quot;font-size: 20px;&quot;&gt;*&lt;/font&gt;" style="text;html=1;align=center;verticalAlign=middle;resizable=0;points=[];autosize=1;strokeColor=none;fillColor=none;" parent="1" vertex="1">
          <mxGeometry x="630" y="570" width="30" height="40" as="geometry" />
        </mxCell>
        <mxCell id="u8NcvJqqO0mWb3Y4gfqW-30" value="" style="endArrow=open;endFill=1;endSize=12;html=1;rounded=0;edgeStyle=orthogonalEdgeStyle;exitX=0.5;exitY=0;exitDx=0;exitDy=0;entryX=1;entryY=0.5;entryDx=0;entryDy=0;dashed=1;dashPattern=8 8;" parent="1" source="1_fNYgQ6_xFXtblxYXV3-39" target="1_fNYgQ6_xFXtblxYXV3-26" edge="1">
          <mxGeometry width="160" relative="1" as="geometry">
            <mxPoint x="540" y="504" as="sourcePoint" />
            <mxPoint x="670" y="621" as="targetPoint" />
          </mxGeometry>
        </mxCell>
        <mxCell id="_YEIu9zwAJ8JmFqL8ytD-10" value="" style="endArrow=open;endFill=1;endSize=12;html=1;rounded=0;edgeStyle=orthogonalEdgeStyle;exitX=1;exitY=0.5;exitDx=0;exitDy=0;entryX=0;entryY=0.5;entryDx=0;entryDy=0;dashed=1;dashPattern=8 8;" edge="1" parent="1" source="1_fNYgQ6_xFXtblxYXV3-73" target="1_fNYgQ6_xFXtblxYXV3-92">
          <mxGeometry width="160" relative="1" as="geometry">
            <mxPoint x="500" y="700" as="sourcePoint" />
            <mxPoint x="250" y="752" as="targetPoint" />
          </mxGeometry>
        </mxCell>
        <mxCell id="_YEIu9zwAJ8JmFqL8ytD-11" value="" style="endArrow=open;endFill=1;endSize=12;html=1;rounded=0;edgeStyle=orthogonalEdgeStyle;entryX=0;entryY=0.5;entryDx=0;entryDy=0;exitX=1;exitY=0.5;exitDx=0;exitDy=0;dashed=1;dashPattern=8 8;" edge="1" parent="1" source="eigLV38i5SHjXjXPlfT3-16" target="1_fNYgQ6_xFXtblxYXV3-58">
          <mxGeometry width="160" relative="1" as="geometry">
            <mxPoint x="-330" y="569.44" as="sourcePoint" />
            <mxPoint x="-75" y="355.44" as="targetPoint" />
          </mxGeometry>
        </mxCell>
        <mxCell id="_YEIu9zwAJ8JmFqL8ytD-12" value="" style="endArrow=open;endFill=1;endSize=12;html=1;rounded=0;edgeStyle=orthogonalEdgeStyle;entryX=0;entryY=0.5;entryDx=0;entryDy=0;exitX=1;exitY=0.5;exitDx=0;exitDy=0;dashed=1;dashPattern=8 8;" edge="1" parent="1" source="1_fNYgQ6_xFXtblxYXV3-58" target="1_fNYgQ6_xFXtblxYXV3-44">
          <mxGeometry width="160" relative="1" as="geometry">
            <mxPoint x="250" y="489.44" as="sourcePoint" />
            <mxPoint x="505" y="275.44" as="targetPoint" />
          </mxGeometry>
        </mxCell>
        <mxCell id="_YEIu9zwAJ8JmFqL8ytD-15" value="" style="endArrow=open;endFill=1;endSize=12;html=1;rounded=0;entryX=1;entryY=0.5;entryDx=0;entryDy=0;exitX=0;exitY=0.5;exitDx=0;exitDy=0;edgeStyle=orthogonalEdgeStyle;" edge="1" parent="1" source="u8NcvJqqO0mWb3Y4gfqW-26" target="1_fNYgQ6_xFXtblxYXV3-92">
          <mxGeometry width="160" relative="1" as="geometry">
            <mxPoint x="1170" y="720" as="sourcePoint" />
            <mxPoint x="1030" y="850" as="targetPoint" />
            <Array as="points">
              <mxPoint x="1060" y="680" />
              <mxPoint x="1005" y="680" />
              <mxPoint x="1005" y="809" />
            </Array>
          </mxGeometry>
        </mxCell>
        <mxCell id="_YEIu9zwAJ8JmFqL8ytD-16" value="&lt;font style=&quot;font-size: 20px;&quot;&gt;*&lt;/font&gt;" style="text;html=1;align=center;verticalAlign=middle;resizable=0;points=[];autosize=1;strokeColor=none;fillColor=none;" vertex="1" parent="1">
          <mxGeometry x="920" y="600" width="30" height="40" as="geometry" />
        </mxCell>
        <mxCell id="_YEIu9zwAJ8JmFqL8ytD-17" value="&lt;font style=&quot;font-size: 20px;&quot;&gt;*&lt;/font&gt;" style="text;html=1;align=center;verticalAlign=middle;resizable=0;points=[];autosize=1;strokeColor=none;fillColor=none;" vertex="1" parent="1">
          <mxGeometry x="950" y="770" width="30" height="40" as="geometry" />
        </mxCell>
        <mxCell id="_YEIu9zwAJ8JmFqL8ytD-19" value="" style="endArrow=open;endFill=1;endSize=12;html=1;rounded=0;entryX=1;entryY=0.5;entryDx=0;entryDy=0;exitX=0;exitY=0.5;exitDx=0;exitDy=0;edgeStyle=orthogonalEdgeStyle;" edge="1" parent="1" source="1_fNYgQ6_xFXtblxYXV3-40" target="_YEIu9zwAJ8JmFqL8ytD-2">
          <mxGeometry width="160" relative="1" as="geometry">
            <mxPoint x="1020" y="390" as="sourcePoint" />
            <mxPoint x="880" y="520" as="targetPoint" />
            <Array as="points">
              <mxPoint x="1040" y="459" />
              <mxPoint x="1040" y="305" />
            </Array>
          </mxGeometry>
        </mxCell>
        <mxCell id="_YEIu9zwAJ8JmFqL8ytD-20" value="&lt;font style=&quot;font-size: 20px;&quot;&gt;*&lt;/font&gt;" style="text;html=1;align=center;verticalAlign=middle;resizable=0;points=[];autosize=1;strokeColor=none;fillColor=none;" vertex="1" parent="1">
          <mxGeometry x="970" y="270" width="30" height="40" as="geometry" />
        </mxCell>
        <mxCell id="_YEIu9zwAJ8JmFqL8ytD-21" value="" style="endArrow=open;endFill=1;endSize=12;html=1;rounded=0;entryX=1;entryY=0.5;entryDx=0;entryDy=0;exitX=0.25;exitY=0;exitDx=0;exitDy=0;edgeStyle=orthogonalEdgeStyle;" edge="1" parent="1" source="1_fNYgQ6_xFXtblxYXV3-39" target="1_fNYgQ6_xFXtblxYXV3-30">
          <mxGeometry width="160" relative="1" as="geometry">
            <mxPoint x="1110" y="383" as="sourcePoint" />
            <mxPoint x="1010" y="229" as="targetPoint" />
            <Array as="points">
              <mxPoint x="1170" y="120" />
              <mxPoint x="630" y="120" />
            </Array>
          </mxGeometry>
        </mxCell>
        <mxCell id="_YEIu9zwAJ8JmFqL8ytD-22" value="&lt;font style=&quot;font-size: 20px;&quot;&gt;*&lt;/font&gt;" style="text;html=1;align=center;verticalAlign=middle;resizable=0;points=[];autosize=1;strokeColor=none;fillColor=none;" vertex="1" parent="1">
          <mxGeometry x="600" y="80" width="30" height="40" as="geometry" />
        </mxCell>
      </root>
    </mxGraphModel>
  </diagram>
</mxfile>
